<?xml version="1.0" encoding="utf-8"?>
<!-- Generator: Adobe Illustrator 17.0.0, SVG Export Plug-In . SVG Version: 6.00 Build 0)  -->
<!DOCTYPE svg PUBLIC "-//W3C//DTD SVG 1.1//EN" "http://www.w3.org/Graphics/SVG/1.1/DTD/svg11.dtd">
<svg version="1.1" id="Calque_1" xmlns="http://www.w3.org/2000/svg" xmlns:xlink="http://www.w3.org/1999/xlink" x="0px" y="0px"
	 viewBox="0 0 1024 1024" enable-background="new 0 0 1024 1024" xml:space="preserve">
<g class="up-logo">
	<path class="border" fill="#FFFFFF" stroke="#649BCC" stroke-width="25" stroke-miterlimit="10" d="M907.5,778.27
		c0,128.079-95.271,129.23-123.85,129.23H243.933c-28.579,0-127.433-1.151-127.433-120.265V245.46
		c0-129.808,93.762-128.96,122.341-128.96h542.263c28.579,0,126.396-0.849,126.396,134.083V778.27z"/>
	<g>
		<path class="u" fill="#888888" d="M371.8,706.976c-29.949,0-53.795-8.869-71.533-26.611c-17.742-17.738-26.855-40.119-27.344-67.139V463.812
			h21.973v147.461c0,20.348,7.404,37.682,22.217,52.002c14.648,14.488,32.795,21.729,54.443,21.729
			c20.18,0,37.636-7.202,52.368-21.606c14.729-14.404,22.095-31.776,22.095-52.124V463.812h21.972v149.414
			c-0.488,27.02-9.605,49.4-27.343,67.139C422.905,698.106,399.956,706.976,371.8,706.976z"/>
		<path class="p" fill="#649BCC" d="M563.205,568.06v135.498h-21.973V312.933h102.539c29.785,4.07,55.092,16.521,75.928,37.354
			c24.902,24.902,37.354,54.932,37.354,90.088c0,35.32-12.451,65.43-37.354,90.332s-54.932,37.354-90.088,37.354H563.205z
			 M563.205,335.149v210.693h66.406c28.969,0,53.749-10.292,74.341-30.884c20.588-20.588,30.884-45.448,30.884-74.585
			c0-29.133-10.296-53.955-30.884-74.463c-20.592-20.508-45.372-30.762-74.341-30.762H563.205z"/>
	</g>
</g>
</svg>
