<?xml version="1.0" encoding="utf-8"?>
<!-- Generator: Adobe Illustrator 17.0.0, SVG Export Plug-In . SVG Version: 6.00 Build 0)  -->
<!DOCTYPE svg PUBLIC "-//W3C//DTD SVG 1.1//EN" "http://www.w3.org/Graphics/SVG/1.1/DTD/svg11.dtd">
<svg version="1.1" id="Calque_1" xmlns="http://www.w3.org/2000/svg" xmlns:xlink="http://www.w3.org/1999/xlink" x="0px" y="0px"
	 width="1665px" height="1024px" viewBox="0 0 1665 1024" enable-background="new 0 0 1665 1024" xml:space="preserve">
<g>
	<path fill="#FFFFFF" stroke="#649BCC" stroke-width="25" stroke-miterlimit="10" d="M1544.5,778.27
		c0,129.73-115.244,131.23-165.7,131.23H297c-50.456,0-148.5-1.5-148.5-122.265V245.46c0-128.46,97.044-126.96,147.5-126.96
		h1078.305c50.456,0,170.195-1.501,170.195,132.083V778.27z"/>
	<g>
		<path fill="#888888" d="M349.8,706.976c-29.949,0-53.795-8.869-71.533-26.611c-17.742-17.738-26.855-40.119-27.344-67.139V463.812
			h21.973v147.461c0,20.348,7.404,37.682,22.217,52.002c14.648,14.488,32.795,21.729,54.443,21.729
			c20.18,0,37.636-7.202,52.368-21.606c14.729-14.404,22.095-31.776,22.095-52.124V463.812h21.972v149.414
			c-0.488,27.02-9.605,49.4-27.343,67.139C400.905,698.106,377.956,706.976,349.8,706.976z"/>
		<path fill="#649BCC" d="M541.206,568.06v135.498h-21.973V312.933h102.539c29.785,4.07,55.092,16.521,75.928,37.354
			c24.902,24.902,37.354,54.932,37.354,90.088c0,35.32-12.451,65.43-37.354,90.332s-54.932,37.354-90.088,37.354H541.206z
			 M541.206,335.149v210.693h66.406c28.969,0,53.749-10.292,74.341-30.884c20.588-20.588,30.884-45.448,30.884-74.585
			c0-29.133-10.296-53.955-30.884-74.463c-20.592-20.508-45.372-30.762-74.341-30.762H541.206z"/>
		<path fill="#649BCC" d="M882.026,442.083c37.109,0,68.726,13.104,94.849,39.307c26.123,26.207,39.185,57.861,39.185,94.971
			c0,36.949-13.062,68.523-39.185,94.727c-26.123,26.207-57.739,39.307-94.849,39.307c-36.949,0-68.523-13.1-94.727-39.307
			c-26.207-26.203-39.307-57.777-39.307-94.727c0-37.109,13.1-68.764,39.307-94.971
			C813.502,455.187,845.077,442.083,882.026,442.083z M803.657,497.991c-21.648,21.648-32.471,47.771-32.471,78.369
			c0,30.602,10.822,56.683,32.471,78.247c21.645,21.568,47.768,32.349,78.369,32.349c30.598,0,56.721-10.78,78.369-32.349
			c21.645-21.564,32.471-47.646,32.471-78.247c0-30.598-10.826-56.721-32.471-78.369c-21.648-21.645-47.771-32.471-78.369-32.471
			C851.424,465.521,825.301,476.347,803.657,497.991z"/>
		<path fill="#649BCC" d="M1096.625,517.278v186.279h-21.973V463.812h21.973v15.381c20.02-19.855,43.293-29.785,69.824-29.785
			c28.32,0,51.35,8.873,69.092,26.611c17.738,17.742,26.855,40.123,27.344,67.139v160.4h-21.973V545.11
			c0-20.344-7.366-37.72-22.095-52.124c-14.732-14.404-32.188-21.606-52.368-21.606c-20.184,0-37.598,7.08-52.246,21.24
			C1106.227,500.597,1100.367,508.817,1096.625,517.278z"/>
		<path fill="#649BCC" d="M1370.307,463.812V361.761h21.973v102.051h48.828v21.973h-48.828v217.773h-21.973V485.784h-48.828v-21.973
			H1370.307z"/>
	</g>
</g>
</svg>
